<?xml version="1.0" encoding="UTF-8" standalone="no"?>
<!-- Generator: Adobe Illustrator 19.0.0, SVG Export Plug-In . SVG Version: 6.00 Build 0)  -->

<svg
   xmlns:dc="http://purl.org/dc/elements/1.1/"
   xmlns:cc="http://creativecommons.org/ns#"
   xmlns:rdf="http://www.w3.org/1999/02/22-rdf-syntax-ns#"
   xmlns:svg="http://www.w3.org/2000/svg"
   xmlns="http://www.w3.org/2000/svg"
   xmlns:sodipodi="http://sodipodi.sourceforge.net/DTD/sodipodi-0.dtd"
   xmlns:inkscape="http://www.inkscape.org/namespaces/inkscape"
   version="1.1"
   id="Layer_1"
   x="0px"
   y="0px"
   viewBox="0 0 512 512"
   style="enable-background:new 0 0 512 512;"
   xml:space="preserve"
   inkscape:version="0.48.4 r9939"
   width="100%"
   height="100%"
   sodipodi:docname="security.svg"><metadata
     id="metadata57"><rdf:RDF><cc:Work
         rdf:about=""><dc:format>image/svg+xml</dc:format><dc:type
           rdf:resource="http://purl.org/dc/dcmitype/StillImage" /><dc:title></dc:title></cc:Work></rdf:RDF></metadata><defs
     id="defs55" /><sodipodi:namedview
     pagecolor="#ffffff"
     bordercolor="#666666"
     borderopacity="1"
     objecttolerance="10"
     gridtolerance="10"
     guidetolerance="10"
     inkscape:pageopacity="0"
     inkscape:pageshadow="2"
     inkscape:window-width="1871"
     inkscape:window-height="1056"
     id="namedview53"
     showgrid="false"
     inkscape:zoom="0.4609375"
     inkscape:cx="256"
     inkscape:cy="256"
     inkscape:window-x="49"
     inkscape:window-y="24"
     inkscape:window-maximized="1"
     inkscape:current-layer="Layer_1" /><path
     style="fill:#C9D0D7;"
     d="M389.565,278.261h-66.783c-9.223,0-16.696-7.473-16.696-16.696V150.261  c0-27.619-22.468-50.087-50.087-50.087s-50.087,22.468-50.087,50.087v111.304c0,9.223-7.473,16.696-16.696,16.696h-66.783  c-9.223,0-16.696-7.473-16.696-16.696V150.261C105.739,67.408,173.147,0,256,0s150.261,67.408,150.261,150.261v111.304  C406.261,270.788,398.788,278.261,389.565,278.261z"
     id="path3" /><path
     style="fill:#E79D2E;"
     d="M389.565,512h-267.13c-27.619,0-50.087-22.468-50.087-50.087V294.957  c0-27.619,22.468-50.087,50.087-50.087h267.13c27.619,0,50.087,22.468,50.087,50.087v166.957  C439.652,489.532,417.184,512,389.565,512z"
     id="path7" /><path
     style="fill:#6E6057;"
     d="M356.174,311.652c-77.609,0-135.433,0-200.348,0c-9.223,0-16.696,7.473-16.696,16.696v100.174  c0,9.223,7.473,16.696,16.696,16.696c77.609,0,135.433,0,200.348,0c9.223,0,16.696-7.473,16.696-16.696V328.348  C372.87,319.125,365.397,311.652,356.174,311.652z"
     id="path11" /><path
     style="fill:#DBE9FD;"
     d="M172.522,345.043h33.391v66.783h-33.391V345.043z M239.304,345.043h33.391v66.783h-33.391V345.043z   M339.478,411.826h-33.391v-66.783h33.391V411.826z"
     id="path13" /><g
     id="g23" /><g
     id="g25" /><g
     id="g27" /><g
     id="g29" /><g
     id="g31" /><g
     id="g33" /><g
     id="g35" /><g
     id="g37" /><g
     id="g39" /><g
     id="g41" /><g
     id="g43" /><g
     id="g45" /><g
     id="g47" /><g
     id="g49" /><g
     id="g51" /></svg>